<svg xmlns="http://www.w3.org/2000/svg" version="1.1" xmlns:xlink="http://www.w3.org/1999/xlink" xmlns:svgjs="http://svgjs.com/svgjs" width="400" height="600" preserveAspectRatio="none" viewBox="0 0 400 600"><g mask="url(&quot;#SvgjsMask1055&quot;)" fill="none"><path d="M149 108L-5 262" stroke-width="10" stroke="url(#SvgjsLinearGradient1056)" stroke-linecap="round" class="TopRight"></path><path d="M320 55L91 284" stroke-width="8" stroke="url(#SvgjsLinearGradient1056)" stroke-linecap="round" class="TopRight"></path><path d="M244 506L437 313" stroke-width="8" stroke="url(#SvgjsLinearGradient1057)" stroke-linecap="round" class="BottomLeft"></path><path d="M272 327L431 168" stroke-width="10" stroke="url(#SvgjsLinearGradient1057)" stroke-linecap="round" class="BottomLeft"></path><path d="M313 484L549 248" stroke-width="8" stroke="url(#SvgjsLinearGradient1057)" stroke-linecap="round" class="BottomLeft"></path><path d="M75 588L357 306" stroke-width="8" stroke="url(#SvgjsLinearGradient1056)" stroke-linecap="round" class="TopRight"></path><path d="M376 305L179 502" stroke-width="8" stroke="url(#SvgjsLinearGradient1057)" stroke-linecap="round" class="BottomLeft"></path><path d="M90 539L-32 661" stroke-width="8" stroke="url(#SvgjsLinearGradient1056)" stroke-linecap="round" class="TopRight"></path><path d="M7 482L-150 639" stroke-width="6" stroke="url(#SvgjsLinearGradient1056)" stroke-linecap="round" class="TopRight"></path><path d="M15 301L131 185" stroke-width="8" stroke="url(#SvgjsLinearGradient1057)" stroke-linecap="round" class="BottomLeft"></path><path d="M60 49L-190 299" stroke-width="8" stroke="url(#SvgjsLinearGradient1057)" stroke-linecap="round" class="BottomLeft"></path><path d="M291 120L49 362" stroke-width="6" stroke="url(#SvgjsLinearGradient1057)" stroke-linecap="round" class="BottomLeft"></path><path d="M196 249L-27 472" stroke-width="6" stroke="url(#SvgjsLinearGradient1057)" stroke-linecap="round" class="BottomLeft"></path><path d="M265 179L559 -115" stroke-width="6" stroke="url(#SvgjsLinearGradient1056)" stroke-linecap="round" class="TopRight"></path><path d="M85 519L270 334" stroke-width="8" stroke="url(#SvgjsLinearGradient1056)" stroke-linecap="round" class="TopRight"></path><path d="M356 552L554 354" stroke-width="10" stroke="url(#SvgjsLinearGradient1057)" stroke-linecap="round" class="BottomLeft"></path><path d="M85 388L-102 575" stroke-width="10" stroke="url(#SvgjsLinearGradient1057)" stroke-linecap="round" class="BottomLeft"></path><path d="M98 57L-118 273" stroke-width="6" stroke="url(#SvgjsLinearGradient1057)" stroke-linecap="round" class="BottomLeft"></path><path d="M144 480L-83 707" stroke-width="6" stroke="url(#SvgjsLinearGradient1056)" stroke-linecap="round" class="TopRight"></path></g><defs><mask id="SvgjsMask1055"><rect width="400" height="600" fill="#ffffff"></rect></mask><linearGradient x1="0%" y1="100%" x2="100%" y2="0%" id="SvgjsLinearGradient1056"><stop stop-color="rgba(2, 149, 169, 0)" offset="0"></stop><stop stop-color="rgba(2, 149, 169, 1)" offset="1"></stop></linearGradient><linearGradient x1="100%" y1="0%" x2="0%" y2="100%" id="SvgjsLinearGradient1057"><stop stop-color="rgba(2, 149, 169, 0)" offset="0"></stop><stop stop-color="rgba(2, 149, 169, 1)" offset="1"></stop></linearGradient></defs></svg>