<svg xmlns="http://www.w3.org/2000/svg" version="1.1" xmlns:xlink="http://www.w3.org/1999/xlink" xmlns:svgjs="http://svgjs.com/svgjs" width="400" height="600" preserveAspectRatio="none" viewBox="0 0 400 600"><g mask="url(&quot;#SvgjsMask1150&quot;)" fill="none"><path d="M319 280L99 60" stroke-width="8" stroke="url(#SvgjsLinearGradient1151)" stroke-linecap="round" class="TopLeft"></path><path d="M49 294L254 499" stroke-width="6" stroke="url(#SvgjsLinearGradient1152)" stroke-linecap="round" class="BottomRight"></path><path d="M235 87L501 353" stroke-width="10" stroke="url(#SvgjsLinearGradient1152)" stroke-linecap="round" class="BottomRight"></path><path d="M323 174L98 -51" stroke-width="8" stroke="url(#SvgjsLinearGradient1152)" stroke-linecap="round" class="BottomRight"></path><path d="M160 374L361 575" stroke-width="10" stroke="url(#SvgjsLinearGradient1151)" stroke-linecap="round" class="TopLeft"></path><path d="M1 381L163 543" stroke-width="8" stroke="url(#SvgjsLinearGradient1151)" stroke-linecap="round" class="TopLeft"></path><path d="M89 261L316 488" stroke-width="10" stroke="url(#SvgjsLinearGradient1152)" stroke-linecap="round" class="BottomRight"></path><path d="M375 29L141 -205" stroke-width="8" stroke="url(#SvgjsLinearGradient1151)" stroke-linecap="round" class="TopLeft"></path><path d="M213 216L451 454" stroke-width="8" stroke="url(#SvgjsLinearGradient1151)" stroke-linecap="round" class="TopLeft"></path><path d="M4 503L203 702" stroke-width="6" stroke="url(#SvgjsLinearGradient1152)" stroke-linecap="round" class="BottomRight"></path><path d="M282 214L392 324" stroke-width="10" stroke="url(#SvgjsLinearGradient1152)" stroke-linecap="round" class="BottomRight"></path><path d="M287 360L-11 62" stroke-width="8" stroke="url(#SvgjsLinearGradient1152)" stroke-linecap="round" class="BottomRight"></path><path d="M293 566L411 684" stroke-width="10" stroke="url(#SvgjsLinearGradient1151)" stroke-linecap="round" class="TopLeft"></path><path d="M260 264L-33 -29" stroke-width="8" stroke="url(#SvgjsLinearGradient1151)" stroke-linecap="round" class="TopLeft"></path><path d="M85 554L-17 452" stroke-width="8" stroke="url(#SvgjsLinearGradient1152)" stroke-linecap="round" class="BottomRight"></path><path d="M385 363L651 629" stroke-width="10" stroke="url(#SvgjsLinearGradient1151)" stroke-linecap="round" class="TopLeft"></path><path d="M76 382L218 524" stroke-width="10" stroke="url(#SvgjsLinearGradient1152)" stroke-linecap="round" class="BottomRight"></path><path d="M374 431L640 697" stroke-width="8" stroke="url(#SvgjsLinearGradient1152)" stroke-linecap="round" class="BottomRight"></path><path d="M328 531L509 712" stroke-width="10" stroke="url(#SvgjsLinearGradient1152)" stroke-linecap="round" class="BottomRight"></path></g><defs><mask id="SvgjsMask1150"><rect width="400" height="600" fill="#ffffff"></rect></mask><linearGradient x1="100%" y1="100%" x2="0%" y2="0%" id="SvgjsLinearGradient1151"><stop stop-color="rgba(2, 149, 169, 0)" offset="0"></stop><stop stop-color="rgba(2, 149, 169, 1)" offset="1"></stop></linearGradient><linearGradient x1="0%" y1="0%" x2="100%" y2="100%" id="SvgjsLinearGradient1152"><stop stop-color="rgba(2, 149, 169, 0)" offset="0"></stop><stop stop-color="rgba(2, 149, 169, 1)" offset="1"></stop></linearGradient></defs></svg>